<svg width="502" height="70" viewBox="0 0 502 70" fill="none" xmlns="http://www.w3.org/2000/svg">
<g id="Group 359">
<rect id="Rectangle 2" x="287" y="6" width="215" height="19" fill="#FFC800"/>
<g id="&#208;&#157;&#208;&#176; &#209;&#130;&#208;&#178;&#208;&#190;&#208;&#181;&#208;&#185; &#209;&#129;&#209;&#130;&#208;&#190;&#209;&#128;&#208;&#190;&#208;&#189;&#208;&#181; &#208;&#178;&#208;&#190;&#208;&#183;&#208;&#188;&#208;&#190;&#208;&#182;&#208;&#189;&#208;&#190;&#209;&#129;&#209;&#130;&#208;&#184; &#208;&#180;&#208;&#187;&#209;&#143; &#209;&#128;&#208;&#190;&#209;&#129;&#209;&#130;&#208;&#176; &#208;&#184; &#208;&#190;&#208;&#177;&#209;&#131;&#209;&#135;&#208;&#181;&#208;&#189;&#208;&#184;&#208;&#184;&#209;&#143;">
<path d="M15.8044 24.1292V14.1582H6.86843V24.1292H2.17267V0H6.86843V9.08393H15.8044V0H20.5002V24.1292H15.8044Z" fill="black"/>
<path d="M37.7493 24.2356C36.7447 24.2356 35.9153 23.9754 35.2612 23.455C34.6304 22.9346 34.2566 22.1539 34.1398 21.113C33.696 22.0829 33.0652 22.8636 32.2475 23.455C31.4298 24.0227 30.3902 24.3066 29.1287 24.3066C27.5401 24.3066 26.2785 23.869 25.344 22.9937C24.4329 22.0948 23.9774 20.8765 23.9774 19.3388C23.9774 18.2507 24.1759 17.3636 24.5731 16.6775C24.9936 15.9915 25.601 15.4119 26.3953 14.9388C27.1896 14.4657 28.1592 14.0399 29.3039 13.6614L33.7544 12.171C33.6142 11.5323 33.2871 11.0947 32.7732 10.8581C32.2826 10.5979 31.6635 10.4678 30.9159 10.4678C30.0515 10.4678 29.3623 10.6097 28.8483 10.8936C28.3344 11.1538 28.0073 11.5796 27.8671 12.171H24.2577C24.3979 10.8227 24.7717 9.69899 25.3791 8.80006C25.9865 7.87747 26.7925 7.19145 27.797 6.74198C28.8016 6.26886 29.9464 6.0323 31.2313 6.0323C33.3105 6.0323 34.9809 6.58821 36.2424 7.70005C37.504 8.78823 38.1114 10.4678 38.0647 12.7388L37.9595 18.4872C37.9362 19.055 38.0296 19.4571 38.2399 19.6937C38.4735 19.9302 38.8356 20.0485 39.3262 20.0485H39.6416V24.1647C39.3379 24.1883 39.0225 24.2002 38.6954 24.2002C38.3684 24.2238 38.053 24.2356 37.7493 24.2356ZM28.2176 18.2033C28.2176 18.7474 28.4395 19.1496 28.8834 19.4098C29.3506 19.6464 29.9347 19.7646 30.6355 19.7646C31.313 19.7646 31.9438 19.6819 32.5279 19.5163C33.1119 19.327 33.5207 19.0904 33.7544 18.8066L33.7894 14.9033L30.6706 16.0033C29.8062 16.3109 29.1754 16.6302 28.7783 16.9614C28.4045 17.2689 28.2176 17.6829 28.2176 18.2033Z" fill="black"/>
<path d="M49.2614 6.45811H63.559V11.213H58.6179V24.1292H54.2025V11.213H49.2614V6.45811Z" fill="black"/>
<path d="M74.4927 24.1292H66.3627V6.45811H74.1072C75.9762 6.45811 77.4013 6.87209 78.3825 7.70005C79.3637 8.52801 79.8543 9.67533 79.8543 11.142C79.8543 11.9936 79.6557 12.727 79.2585 13.342C78.8847 13.9571 78.3708 14.4184 77.7166 14.7259C78.5343 15.0334 79.2118 15.5302 79.7491 16.2162C80.3098 16.8786 80.5902 17.7302 80.5902 18.7711C80.5902 20.498 80.0295 21.8227 78.9081 22.7453C77.8101 23.6679 76.3383 24.1292 74.4927 24.1292ZM70.6379 10.5388V13.7678H73.4414C74.2123 13.7678 74.7847 13.6377 75.1585 13.3775C75.5323 13.1173 75.7192 12.7033 75.7192 12.1356C75.7192 11.5678 75.5323 11.1657 75.1585 10.9291C74.8081 10.6689 74.2474 10.5388 73.4764 10.5388H70.6379ZM70.6379 16.3937V20.013H73.8269C74.6913 20.013 75.3337 19.8711 75.7542 19.5872C76.1981 19.2797 76.42 18.8184 76.42 18.2033C76.42 17.5646 76.2098 17.1033 75.7893 16.8195C75.3688 16.5356 74.738 16.3937 73.897 16.3937H70.6379Z" fill="black"/>
<path d="M91.4968 6.0323C93.319 6.0323 94.8843 6.43445 96.1925 7.23876C97.5242 8.04306 98.5404 9.14307 99.2413 10.5388C99.9655 11.9108 100.328 13.484 100.328 15.2582C100.328 17.0324 99.9655 18.6173 99.2413 20.013C98.5404 21.4087 97.5242 22.5206 96.1925 23.3485C94.8843 24.1528 93.319 24.555 91.4968 24.555C89.6745 24.555 88.0976 24.1528 86.766 23.3485C85.4577 22.5206 84.4414 21.4087 83.7172 20.013C82.993 18.6173 82.6309 17.0324 82.6309 15.2582C82.6309 13.484 82.993 11.9108 83.7172 10.5388C84.4414 9.14307 85.4577 8.04306 86.766 7.23876C88.0976 6.43445 89.6745 6.0323 91.4968 6.0323ZM91.4968 10.9291C90.1651 10.9291 89.0905 11.3076 88.2728 12.0646C87.4551 12.8216 87.0463 13.8861 87.0463 15.2582C87.0463 16.6302 87.4551 17.7066 88.2728 18.4872C89.0905 19.2679 90.1651 19.6582 91.4968 19.6582C92.805 19.6582 93.868 19.2679 94.6857 18.4872C95.5267 17.7066 95.9472 16.6302 95.9472 15.2582C95.9472 13.8861 95.5267 12.8216 94.6857 12.0646C93.868 11.3076 92.805 10.9291 91.4968 10.9291Z" fill="black"/>
<path d="M118.917 18.2033C118.683 19.3862 118.228 20.4625 117.55 21.4324C116.873 22.4023 115.973 23.1711 114.852 23.7389C113.731 24.283 112.376 24.555 110.787 24.555C109.152 24.555 107.703 24.1765 106.442 23.4195C105.18 22.6389 104.187 21.5625 103.463 20.1905C102.739 18.7947 102.377 17.1743 102.377 15.3291C102.377 13.484 102.739 11.8635 103.463 10.4678C104.211 9.0721 105.227 7.98392 106.512 7.20327C107.797 6.42262 109.257 6.0323 110.892 6.0323C112.551 6.0323 113.999 6.41079 115.238 7.16779C116.499 7.90113 117.48 8.95382 118.181 10.3259C118.905 11.6979 119.268 13.3539 119.268 15.2936C119.268 15.4592 119.256 15.6603 119.232 15.8969C119.232 16.1098 119.221 16.299 119.197 16.4646H106.757C106.944 17.6947 107.4 18.6292 108.124 19.2679C108.848 19.8829 109.771 20.1905 110.892 20.1905C111.99 20.1905 112.866 20.013 113.52 19.6582C114.175 19.2797 114.642 18.7947 114.922 18.2033H118.917ZM110.892 10.3614C109.864 10.3614 108.988 10.6452 108.264 11.213C107.563 11.7571 107.084 12.5732 106.827 13.6614H114.922C114.759 12.6205 114.315 11.8162 113.591 11.2485C112.89 10.6571 111.99 10.3614 110.892 10.3614Z" fill="black"/>
<path d="M126.594 6.45811V16.784L133.217 6.45811H137.387V24.1292H132.972V13.7323L126.454 24.1292H122.178V6.45811H126.594ZM127.645 0.709681C127.855 1.23012 128.136 1.63227 128.486 1.91614C128.86 2.20001 129.339 2.34195 129.923 2.34195C130.53 2.34195 131.009 2.21184 131.36 1.95163C131.71 1.66775 131.979 1.25377 132.166 0.709681H134.899C134.829 2.17636 134.362 3.3355 133.497 4.18712C132.633 5.03874 131.441 5.46455 129.923 5.46455C128.404 5.46455 127.201 5.03874 126.313 4.18712C125.449 3.3355 124.993 2.17636 124.947 0.709681H127.645Z" fill="black"/>
<path d="M157.092 5.99681C159.404 5.99681 161.25 6.63553 162.628 7.91296C164.007 9.16673 164.848 10.8463 165.151 12.9517H161.262C161.028 12.2657 160.596 11.7571 159.965 11.4259C159.334 11.071 158.435 10.8936 157.267 10.8936C155.982 10.8936 154.942 11.2839 154.148 12.0646C153.377 12.8216 152.992 13.8743 152.992 15.2227C152.992 16.5947 153.377 17.6711 154.148 18.4517C154.942 19.2324 155.982 19.6227 157.267 19.6227C158.435 19.6227 159.334 19.4453 159.965 19.0904C160.596 18.7356 161.028 18.2388 161.262 17.6001H165.151C164.848 19.7292 164.007 21.4206 162.628 22.6743C161.25 23.9045 159.404 24.5195 157.092 24.5195C155.363 24.5195 153.856 24.1174 152.571 23.3131C151.309 22.4851 150.328 21.3733 149.627 19.9776C148.926 18.5818 148.576 16.9969 148.576 15.2227C148.576 13.4485 148.926 11.8753 149.627 10.5033C150.328 9.10759 151.309 8.00758 152.571 7.20327C153.856 6.39897 155.363 5.99681 157.092 5.99681Z" fill="black"/>
<path d="M166.95 6.45811H181.247V11.213H176.306V24.1292H171.891V11.213H166.95V6.45811Z" fill="black"/>
<path d="M191.664 6.0323C193.486 6.0323 195.051 6.43445 196.359 7.23876C197.691 8.04306 198.707 9.14307 199.408 10.5388C200.132 11.9108 200.494 13.484 200.494 15.2582C200.494 17.0324 200.132 18.6173 199.408 20.013C198.707 21.4087 197.691 22.5206 196.359 23.3485C195.051 24.1528 193.486 24.555 191.664 24.555C189.841 24.555 188.264 24.1528 186.933 23.3485C185.625 22.5206 184.608 21.4087 183.884 20.013C183.16 18.6173 182.798 17.0324 182.798 15.2582C182.798 13.484 183.16 11.9108 183.884 10.5388C184.608 9.14307 185.625 8.04306 186.933 7.23876C188.264 6.43445 189.841 6.0323 191.664 6.0323ZM191.664 10.9291C190.332 10.9291 189.257 11.3076 188.44 12.0646C187.622 12.8216 187.213 13.8861 187.213 15.2582C187.213 16.6302 187.622 17.7066 188.44 18.4872C189.257 19.2679 190.332 19.6582 191.664 19.6582C192.972 19.6582 194.035 19.2679 194.853 18.4872C195.694 17.7066 196.114 16.6302 196.114 15.2582C196.114 13.8861 195.694 12.8216 194.853 12.0646C194.035 11.3076 192.972 10.9291 191.664 10.9291Z" fill="black"/>
<path d="M207.66 9.58071C208.057 8.61081 208.723 7.78285 209.657 7.09682C210.615 6.4108 211.783 6.06778 213.162 6.06778C214.61 6.06778 215.918 6.42262 217.087 7.1323C218.255 7.81833 219.189 8.84737 219.89 10.2194C220.591 11.5678 220.941 13.2237 220.941 15.1872C220.941 17.1507 220.591 18.8302 219.89 20.2259C219.212 21.6217 218.29 22.6862 217.122 23.4195C215.953 24.1528 214.645 24.5195 213.197 24.5195C211.865 24.5195 210.779 24.283 209.938 23.8098C209.097 23.3367 208.408 22.6625 207.87 21.7872V31.226H203.455V6.45811H207.66V9.58071ZM212.145 19.6937C213.571 19.6937 214.657 19.3152 215.404 18.5582C216.175 17.7775 216.561 16.6657 216.561 15.2227C216.561 13.7797 216.175 12.7033 215.404 11.9936C214.657 11.2603 213.571 10.8936 212.145 10.8936C211.071 10.8936 210.171 11.0356 209.447 11.3194C208.723 11.6033 208.197 12.0646 207.87 12.7033V17.955C208.197 18.5937 208.723 19.0431 209.447 19.3034C210.171 19.5636 211.071 19.6937 212.145 19.6937Z" fill="black"/>
<path d="M231.943 6.0323C233.765 6.0323 235.33 6.43445 236.638 7.23876C237.97 8.04306 238.986 9.14307 239.687 10.5388C240.411 11.9108 240.773 13.484 240.773 15.2582C240.773 17.0324 240.411 18.6173 239.687 20.013C238.986 21.4087 237.97 22.5206 236.638 23.3485C235.33 24.1528 233.765 24.555 231.943 24.555C230.12 24.555 228.543 24.1528 227.212 23.3485C225.904 22.5206 224.887 21.4087 224.163 20.013C223.439 18.6173 223.077 17.0324 223.077 15.2582C223.077 13.484 223.439 11.9108 224.163 10.5388C224.887 9.14307 225.904 8.04306 227.212 7.23876C228.543 6.43445 230.12 6.0323 231.943 6.0323ZM231.943 10.9291C230.611 10.9291 229.536 11.3076 228.719 12.0646C227.901 12.8216 227.492 13.8861 227.492 15.2582C227.492 16.6302 227.901 17.7066 228.719 18.4872C229.536 19.2679 230.611 19.6582 231.943 19.6582C233.251 19.6582 234.314 19.2679 235.132 18.4872C235.973 17.7066 236.393 16.6302 236.393 15.2582C236.393 13.8861 235.973 12.8216 235.132 12.0646C234.314 11.3076 233.251 10.9291 231.943 10.9291Z" fill="black"/>
<path d="M254.352 24.1292V17.4582H248.149V24.1292H243.734V6.45811H248.149V12.7388H254.352V6.45811H258.767V24.1292H254.352Z" fill="black"/>
<path d="M278.253 18.2033C278.02 19.3862 277.564 20.4625 276.887 21.4324C276.209 22.4023 275.31 23.1711 274.188 23.7389C273.067 24.283 271.712 24.555 270.123 24.555C268.488 24.555 267.04 24.1765 265.778 23.4195C264.516 22.6389 263.524 21.5625 262.799 20.1905C262.075 18.7947 261.713 17.1743 261.713 15.3291C261.713 13.484 262.075 11.8635 262.799 10.4678C263.547 9.0721 264.563 7.98392 265.848 7.20327C267.133 6.42262 268.593 6.0323 270.228 6.0323C271.887 6.0323 273.336 6.41079 274.574 7.16779C275.835 7.90113 276.817 8.95382 277.517 10.3259C278.242 11.6979 278.604 13.3539 278.604 15.2936C278.604 15.4592 278.592 15.6603 278.569 15.8969C278.569 16.1098 278.557 16.299 278.534 16.4646H266.093C266.28 17.6947 266.736 18.6292 267.46 19.2679C268.184 19.8829 269.107 20.1905 270.228 20.1905C271.326 20.1905 272.203 20.013 272.857 19.6582C273.511 19.2797 273.978 18.7947 274.258 18.2033H278.253ZM270.228 10.3614C269.201 10.3614 268.324 10.6452 267.6 11.213C266.899 11.7571 266.42 12.5732 266.163 13.6614H274.258C274.095 12.6205 273.651 11.8162 272.927 11.2485C272.226 10.6571 271.326 10.3614 270.228 10.3614Z" fill="black"/>
<path d="M297.892 24.1292H289.762V6.45811H297.506C299.375 6.45811 300.8 6.87209 301.782 7.70005C302.763 8.52801 303.253 9.67533 303.253 11.142C303.253 11.9936 303.055 12.727 302.658 13.342C302.284 13.9571 301.77 14.4184 301.116 14.7259C301.934 15.0334 302.611 15.5302 303.148 16.2162C303.709 16.8786 303.989 17.7302 303.989 18.7711C303.989 20.498 303.429 21.8227 302.307 22.7453C301.209 23.6679 299.737 24.1292 297.892 24.1292ZM294.037 10.5388V13.7678H296.841C297.612 13.7678 298.184 13.6377 298.558 13.3775C298.931 13.1173 299.118 12.7033 299.118 12.1356C299.118 11.5678 298.931 11.1657 298.558 10.9291C298.207 10.6689 297.647 10.5388 296.876 10.5388H294.037ZM294.037 16.3937V20.013H297.226C298.09 20.013 298.733 19.8711 299.153 19.5872C299.597 19.2797 299.819 18.8184 299.819 18.2033C299.819 17.5646 299.609 17.1033 299.188 16.8195C298.768 16.5356 298.137 16.3937 297.296 16.3937H294.037Z" fill="black"/>
<path d="M314.896 6.0323C316.718 6.0323 318.283 6.43445 319.592 7.23876C320.923 8.04306 321.94 9.14307 322.64 10.5388C323.365 11.9108 323.727 13.484 323.727 15.2582C323.727 17.0324 323.365 18.6173 322.64 20.013C321.94 21.4087 320.923 22.5206 319.592 23.3485C318.283 24.1528 316.718 24.555 314.896 24.555C313.074 24.555 311.497 24.1528 310.165 23.3485C308.857 22.5206 307.841 21.4087 307.116 20.013C306.392 18.6173 306.03 17.0324 306.03 15.2582C306.03 13.484 306.392 11.9108 307.116 10.5388C307.841 9.14307 308.857 8.04306 310.165 7.23876C311.497 6.43445 313.074 6.0323 314.896 6.0323ZM314.896 10.9291C313.564 10.9291 312.49 11.3076 311.672 12.0646C310.854 12.8216 310.445 13.8861 310.445 15.2582C310.445 16.6302 310.854 17.7066 311.672 18.4872C312.49 19.2679 313.564 19.6582 314.896 19.6582C316.204 19.6582 317.267 19.2679 318.085 18.4872C318.926 17.7066 319.346 16.6302 319.346 15.2582C319.346 13.8861 318.926 12.8216 318.085 12.0646C317.267 11.3076 316.204 10.9291 314.896 10.9291Z" fill="black"/>
<path d="M332.82 20.155C333.848 20.155 334.63 20.0012 335.168 19.6937C335.705 19.3625 335.974 18.8657 335.974 18.2033C335.974 17.5883 335.752 17.1388 335.308 16.8549C334.887 16.5711 334.256 16.4291 333.415 16.4291H330.787V13.7678H333.24C334.058 13.7678 334.654 13.6259 335.027 13.342C335.401 13.0345 335.588 12.6205 335.588 12.1001C335.588 10.9409 334.665 10.3614 332.82 10.3614C331.885 10.3614 331.138 10.527 330.577 10.8581C330.04 11.1657 329.689 11.6506 329.526 12.313H325.846C326.033 10.3495 326.757 8.81189 328.019 7.70005C329.304 6.58821 330.974 6.0323 333.03 6.0323C335.109 6.0323 336.744 6.49359 337.936 7.41618C339.151 8.31511 339.758 9.60436 339.758 11.2839C339.758 12.1592 339.536 12.9162 339.092 13.5549C338.672 14.1936 338.076 14.6431 337.305 14.9033C338.193 15.1399 338.894 15.5893 339.408 16.2517C339.945 16.8904 340.214 17.7302 340.214 18.7711C340.214 20.0012 339.898 21.0539 339.268 21.9292C338.66 22.7808 337.807 23.4313 336.709 23.8808C335.635 24.3303 334.397 24.555 332.995 24.555C330.799 24.555 329.07 23.9991 327.808 22.8872C326.57 21.7518 325.881 20.2023 325.741 18.2388H329.491C329.631 18.9012 329.969 19.3862 330.507 19.6937C331.044 20.0012 331.815 20.155 332.82 20.155Z" fill="black"/>
<path d="M347.457 24.1292H343.182V6.45811H349.034L353.274 14.9743L357.55 6.45811H363.156V24.1292H358.776V12.6678L354.08 21.8227H352.153L347.457 12.6678V24.1292Z" fill="black"/>
<path d="M374.955 6.0323C376.777 6.0323 378.343 6.43445 379.651 7.23876C380.982 8.04306 381.999 9.14307 382.7 10.5388C383.424 11.9108 383.786 13.484 383.786 15.2582C383.786 17.0324 383.424 18.6173 382.7 20.013C381.999 21.4087 380.982 22.5206 379.651 23.3485C378.343 24.1528 376.777 24.555 374.955 24.555C373.133 24.555 371.556 24.1528 370.224 23.3485C368.916 22.5206 367.9 21.4087 367.175 20.013C366.451 18.6173 366.089 17.0324 366.089 15.2582C366.089 13.484 366.451 11.9108 367.175 10.5388C367.9 9.14307 368.916 8.04306 370.224 7.23876C371.556 6.43445 373.133 6.0323 374.955 6.0323ZM374.955 10.9291C373.623 10.9291 372.549 11.3076 371.731 12.0646C370.913 12.8216 370.505 13.8861 370.505 15.2582C370.505 16.6302 370.913 17.7066 371.731 18.4872C372.549 19.2679 373.623 19.6582 374.955 19.6582C376.263 19.6582 377.326 19.2679 378.144 18.4872C378.985 17.7066 379.406 16.6302 379.406 15.2582C379.406 13.8861 378.985 12.8216 378.144 12.0646C377.326 11.3076 376.263 10.9291 374.955 10.9291Z" fill="black"/>
<path d="M389.465 24.1292H384.103L390.271 14.4775L384.209 6.45811H389.08L394.651 14.4775V6.45811H398.962V14.4775L404.534 6.45811H409.404L403.377 14.513L409.51 24.1292H404.148L398.962 15.8259V24.1292H394.651V15.8259L389.465 24.1292Z" fill="black"/>
<path d="M422.209 24.1292V17.4582H416.007V24.1292H411.591V6.45811H416.007V12.7388H422.209V6.45811H426.625V24.1292H422.209Z" fill="black"/>
<path d="M438.436 6.0323C440.259 6.0323 441.824 6.43445 443.132 7.23876C444.464 8.04306 445.48 9.14307 446.181 10.5388C446.905 11.9108 447.267 13.484 447.267 15.2582C447.267 17.0324 446.905 18.6173 446.181 20.013C445.48 21.4087 444.464 22.5206 443.132 23.3485C441.824 24.1528 440.259 24.555 438.436 24.555C436.614 24.555 435.037 24.1528 433.705 23.3485C432.397 22.5206 431.381 21.4087 430.657 20.013C429.932 18.6173 429.57 17.0324 429.57 15.2582C429.57 13.484 429.932 11.9108 430.657 10.5388C431.381 9.14307 432.397 8.04306 433.705 7.23876C435.037 6.43445 436.614 6.0323 438.436 6.0323ZM438.436 10.9291C437.105 10.9291 436.03 11.3076 435.212 12.0646C434.395 12.8216 433.986 13.8861 433.986 15.2582C433.986 16.6302 434.395 17.7066 435.212 18.4872C436.03 19.2679 437.105 19.6582 438.436 19.6582C439.745 19.6582 440.808 19.2679 441.625 18.4872C442.466 17.7066 442.887 16.6302 442.887 15.2582C442.887 13.8861 442.466 12.8216 441.625 12.0646C440.808 11.3076 439.745 10.9291 438.436 10.9291Z" fill="black"/>
<path d="M457.832 5.99681C460.145 5.99681 461.99 6.63553 463.369 7.91296C464.747 9.16673 465.588 10.8463 465.892 12.9517H462.002C461.768 12.2657 461.336 11.7571 460.705 11.4259C460.074 11.071 459.175 10.8936 458.007 10.8936C456.722 10.8936 455.682 11.2839 454.888 12.0646C454.117 12.8216 453.732 13.8743 453.732 15.2227C453.732 16.5947 454.117 17.6711 454.888 18.4517C455.682 19.2324 456.722 19.6227 458.007 19.6227C459.175 19.6227 460.074 19.4453 460.705 19.0904C461.336 18.7356 461.768 18.2388 462.002 17.6001H465.892C465.588 19.7292 464.747 21.4206 463.369 22.6743C461.99 23.9045 460.145 24.5195 457.832 24.5195C456.103 24.5195 454.596 24.1174 453.311 23.3131C452.05 22.4851 451.068 21.3733 450.368 19.9776C449.667 18.5818 449.316 16.9969 449.316 15.2227C449.316 13.4485 449.667 11.8753 450.368 10.5033C451.068 9.10759 452.05 8.00758 453.311 7.20327C454.596 6.39897 456.103 5.99681 457.832 5.99681Z" fill="black"/>
<path d="M467.69 6.45811H481.988V11.213H477.047V24.1292H472.631V11.213H467.69V6.45811Z" fill="black"/>
<path d="M489.207 6.45811V16.784L495.83 6.45811H500V24.1292H495.585V13.7323L489.067 24.1292H484.791V6.45811H489.207Z" fill="black"/>
<path d="M0 67.1258V57.8999H1.75215C2.70999 56.9773 3.42253 55.416 3.88977 53.216C4.38038 51.016 4.63736 48.2719 4.66072 44.9837H16.7506V57.8999H19.4138V67.1258H15.1035V62.6548H4.31029V67.1258H0ZM8.20007 49.7031C8.15334 51.43 7.96645 52.9676 7.63938 54.316C7.31231 55.6408 6.81003 56.8354 6.13253 57.8999H12.3351V49.7031H8.20007Z" fill="black"/>
<path d="M20.4027 57.9354C20.5429 57.9354 20.6947 57.9472 20.8583 57.9709C21.0452 57.9709 21.2204 57.9709 21.3839 57.9709C22.0848 57.9709 22.6104 57.6752 22.9608 57.0838C23.3346 56.4924 23.5916 55.5343 23.7318 54.2096C23.8486 53.1687 23.9537 51.8676 24.0472 50.3063C24.164 48.745 24.2458 46.9708 24.2925 44.9837H36.4874V62.6548H32.072V49.7031H27.9369C27.9136 50.5547 27.8669 51.4655 27.7968 52.4354C27.7501 53.3816 27.6916 54.2569 27.6216 55.0612C27.458 56.93 27.1894 58.444 26.8156 59.6032C26.4418 60.7387 25.9045 61.5666 25.2036 62.0871C24.5261 62.6075 23.65 62.8677 22.5754 62.8677C22.2016 62.8677 21.8161 62.844 21.4189 62.7967C21.0218 62.7494 20.683 62.6903 20.4027 62.6193V57.9354Z" fill="black"/>
<path d="M39.0226 62.6548L44.1389 55.8773C43.2511 55.759 42.4568 55.5107 41.7559 55.1322C41.0784 54.73 40.5411 54.1623 40.144 53.4289C39.7702 52.6956 39.5833 51.7848 39.5833 50.6967C39.5833 49.4429 39.8636 48.3902 40.4243 47.5386C40.985 46.6869 41.7443 46.0482 42.7021 45.6224C43.6599 45.1966 44.7112 44.9837 45.856 44.9837H53.7056V62.6548H49.2902V55.9128H49.0449L44.209 62.6548H39.0226ZM46.5218 53.0386H49.2902V49.4192H46.5568C45.6924 49.4192 45.0383 49.573 44.5944 49.8805C44.1739 50.1644 43.9636 50.6139 43.9636 51.2289C43.9636 51.8203 44.1739 52.2698 44.5944 52.5773C45.0383 52.8848 45.6808 53.0386 46.5218 53.0386Z" fill="black"/>
<path d="M70.0203 48.1063C70.4175 47.1364 71.0833 46.3084 72.0178 45.6224C72.9756 44.9364 74.1437 44.5934 75.5221 44.5934C76.9705 44.5934 78.2788 44.9482 79.4469 45.6579C80.615 46.3439 81.5495 47.373 82.2503 48.745C82.9512 50.0934 83.3016 51.7493 83.3016 53.7128C83.3016 55.6763 82.9512 57.3558 82.2503 58.7515C81.5728 60.1473 80.65 61.2118 79.4819 61.9451C78.3138 62.6784 77.0056 63.0451 75.5571 63.0451C74.2255 63.0451 73.1391 62.8086 72.2981 62.3354C71.4571 61.8623 70.7679 61.1881 70.2306 60.3128V69.7516H65.8152V44.9837H70.0203V48.1063ZM74.5058 58.2193C75.9309 58.2193 77.0172 57.8408 77.7648 57.0838C78.5358 56.3031 78.9212 55.1913 78.9212 53.7483C78.9212 52.3053 78.5358 51.2289 77.7648 50.5192C77.0172 49.7859 75.9309 49.4192 74.5058 49.4192C73.4312 49.4192 72.5317 49.5612 71.8075 49.845C71.0833 50.1289 70.5576 50.5902 70.2306 51.2289V56.4806C70.5576 57.1193 71.0833 57.5687 71.8075 57.829C72.5317 58.0892 73.4312 58.2193 74.5058 58.2193Z" fill="black"/>
<path d="M94.3029 44.5579C96.1252 44.5579 97.6904 44.9601 98.9987 45.7644C100.33 46.5687 101.347 47.6687 102.047 49.0644C102.772 50.4364 103.134 52.0096 103.134 53.7838C103.134 55.558 102.772 57.1429 102.047 58.5386C101.347 59.9343 100.33 61.0462 98.9987 61.8741C97.6904 62.6784 96.1252 63.0806 94.3029 63.0806C92.4807 63.0806 90.9038 62.6784 89.5721 61.8741C88.2639 61.0462 87.2476 59.9343 86.5234 58.5386C85.7992 57.1429 85.437 55.558 85.437 53.7838C85.437 52.0096 85.7992 50.4364 86.5234 49.0644C87.2476 47.6687 88.2639 46.5687 89.5721 45.7644C90.9038 44.9601 92.4807 44.5579 94.3029 44.5579ZM94.3029 49.4547C92.9713 49.4547 91.8966 49.8332 91.079 50.5902C90.2613 51.3472 89.8525 52.4117 89.8525 53.7838C89.8525 55.1558 90.2613 56.2322 91.079 57.0128C91.8966 57.7935 92.9713 58.1838 94.3029 58.1838C95.6112 58.1838 96.6742 57.7935 97.4919 57.0128C98.3329 56.2322 98.7534 55.1558 98.7534 53.7838C98.7534 52.4117 98.3329 51.3472 97.4919 50.5902C96.6742 49.8332 95.6112 49.4547 94.3029 49.4547Z" fill="black"/>
<path d="M113.698 44.5224C116.011 44.5224 117.857 45.1611 119.235 46.4386C120.614 47.6923 121.455 49.3719 121.758 51.4773H117.869C117.635 50.7913 117.203 50.2827 116.572 49.9515C115.941 49.5966 115.042 49.4192 113.874 49.4192C112.589 49.4192 111.549 49.8095 110.755 50.5902C109.984 51.3472 109.598 52.3999 109.598 53.7483C109.598 55.1203 109.984 56.1967 110.755 56.9773C111.549 57.758 112.589 58.1483 113.874 58.1483C115.042 58.1483 115.941 57.9709 116.572 57.6161C117.203 57.2612 117.635 56.7644 117.869 56.1257H121.758C121.455 58.2548 120.614 59.9462 119.235 61.1999C117.857 62.4301 116.011 63.0451 113.698 63.0451C111.97 63.0451 110.463 62.643 109.178 61.8387C107.916 61.0107 106.935 59.8989 106.234 58.5032C105.533 57.1074 105.183 55.5225 105.183 53.7483C105.183 51.9741 105.533 50.401 106.234 49.0289C106.935 47.6332 107.916 46.5332 109.178 45.7289C110.463 44.9246 111.97 44.5224 113.698 44.5224Z" fill="black"/>
<path d="M123.557 44.9837H137.854V49.7386H132.913V62.6548H128.498V49.7386H123.557V44.9837Z" fill="black"/>
<path d="M153.35 62.7612C152.346 62.7612 151.516 62.501 150.862 61.9806C150.231 61.4602 149.858 60.6795 149.741 59.6386C149.297 60.6085 148.666 61.3892 147.848 61.9806C147.031 62.5483 145.991 62.8322 144.73 62.8322C143.141 62.8322 141.879 62.3946 140.945 61.5193C140.034 60.6204 139.578 59.4021 139.578 57.8644C139.578 56.7763 139.777 55.8892 140.174 55.2031C140.594 54.5171 141.202 53.9375 141.996 53.4644C142.791 52.9913 143.76 52.5655 144.905 52.187L149.355 50.6967C149.215 50.0579 148.888 49.6203 148.374 49.3837C147.883 49.1235 147.264 48.9934 146.517 48.9934C145.652 48.9934 144.963 49.1353 144.449 49.4192C143.935 49.6794 143.608 50.1052 143.468 50.6967H139.859C139.999 49.3483 140.373 48.2246 140.98 47.3257C141.587 46.4031 142.393 45.717 143.398 45.2676C144.402 44.7945 145.547 44.5579 146.832 44.5579C148.911 44.5579 150.582 45.1138 151.843 46.2257C153.105 47.3138 153.712 48.9934 153.666 51.2644L153.56 57.0128C153.537 57.5806 153.63 57.9827 153.841 58.2193C154.074 58.4558 154.436 58.5741 154.927 58.5741H155.242V62.6903C154.939 62.7139 154.623 62.7258 154.296 62.7258C153.969 62.7494 153.654 62.7612 153.35 62.7612ZM143.818 56.7289C143.818 57.273 144.04 57.6752 144.484 57.9354C144.951 58.172 145.536 58.2902 146.236 58.2902C146.914 58.2902 147.545 58.2075 148.129 58.0419C148.713 57.8526 149.122 57.6161 149.355 57.3322L149.39 53.4289L146.271 54.5289C145.407 54.8365 144.776 55.1558 144.379 55.487C144.005 55.7945 143.818 56.2085 143.818 56.7289Z" fill="black"/>
<path d="M170.329 44.9837V55.3096L176.952 44.9837H181.122V62.6548H176.707V52.2579L170.189 62.6548H165.914V44.9837H170.329Z" fill="black"/>
<path d="M201.177 44.5579C203 44.5579 204.565 44.9601 205.873 45.7644C207.205 46.5687 208.221 47.6687 208.922 49.0644C209.646 50.4364 210.008 52.0096 210.008 53.7838C210.008 55.558 209.646 57.1429 208.922 58.5386C208.221 59.9343 207.205 61.0462 205.873 61.8741C204.565 62.6784 203 63.0806 201.177 63.0806C199.355 63.0806 197.778 62.6784 196.446 61.8741C195.138 61.0462 194.122 59.9343 193.398 58.5386C192.674 57.1429 192.311 55.558 192.311 53.7838C192.311 52.0096 192.674 50.4364 193.398 49.0644C194.122 47.6687 195.138 46.5687 196.446 45.7644C197.778 44.9601 199.355 44.5579 201.177 44.5579ZM201.177 49.4547C199.846 49.4547 198.771 49.8332 197.953 50.5902C197.136 51.3472 196.727 52.4117 196.727 53.7838C196.727 55.1558 197.136 56.2322 197.953 57.0128C198.771 57.7935 199.846 58.1838 201.177 58.1838C202.486 58.1838 203.549 57.7935 204.366 57.0128C205.207 56.2322 205.628 55.1558 205.628 53.7838C205.628 52.4117 205.207 51.3472 204.366 50.5902C203.549 49.8332 202.486 49.4547 201.177 49.4547Z" fill="black"/>
<path d="M222.605 45.6934C224.054 45.6934 225.35 46.0246 226.495 46.6869C227.64 47.3257 228.539 48.2719 229.193 49.5257C229.847 50.7558 230.175 52.2816 230.175 54.1031C230.175 55.901 229.812 57.4741 229.088 58.8225C228.364 60.1709 227.336 61.2236 226.004 61.9806C224.673 62.7139 223.096 63.0806 221.274 63.0806C219.475 63.0806 217.898 62.6784 216.543 61.8741C215.211 61.0462 214.172 59.7806 213.424 58.0773C212.7 56.3741 212.338 54.1978 212.338 51.5483C212.338 48.8278 212.606 46.5568 213.144 44.7353C213.681 42.9138 214.545 41.4944 215.737 40.4772C216.952 39.46 218.552 38.8213 220.538 38.5611L228.457 37.532V42.1095L221.239 43.1385C220.164 43.2805 219.311 43.5762 218.68 44.0256C218.05 44.4751 217.582 45.102 217.279 45.9063C216.975 46.7106 216.776 47.7278 216.683 48.9579C217.244 47.9644 218.038 47.1719 219.066 46.5805C220.094 45.9891 221.274 45.6934 222.605 45.6934ZM221.484 50.0934C220.573 50.0934 219.708 50.2354 218.891 50.5192C218.096 50.7794 217.454 51.1698 216.963 51.6902V53.3225C216.963 54.9311 217.337 56.173 218.085 57.0483C218.856 57.8999 219.93 58.3257 221.309 58.3257C222.687 58.3257 223.773 57.9591 224.568 57.2257C225.362 56.4687 225.759 55.4279 225.759 54.1031C225.759 52.7074 225.374 51.6902 224.603 51.0515C223.855 50.4128 222.816 50.0934 221.484 50.0934Z" fill="black"/>
<path d="M238.246 63.329L238.456 62.6548H236.88L231.308 44.9837H236.144L239.963 57.6161L243.783 44.9837H247.918L241.715 64.7838C241.155 66.5817 240.431 67.8946 239.543 68.7226C238.678 69.5742 237.557 70 236.179 70C235.571 70 235.022 69.9527 234.532 69.8581C234.064 69.7871 233.621 69.6688 233.2 69.5032V64.9258C233.597 65.0204 233.971 65.1032 234.321 65.1742C234.695 65.2451 235.116 65.2806 235.583 65.2806C236.26 65.2806 236.809 65.1387 237.23 64.8548C237.674 64.5709 238.013 64.0623 238.246 63.329Z" fill="black"/>
<path d="M260.05 62.6548V54.7064C259.629 55.487 259.045 56.1375 258.297 56.658C257.573 57.1548 256.604 57.4031 255.389 57.4031C253.59 57.4031 252.177 56.8709 251.149 55.8064C250.144 54.7182 249.642 53.2397 249.642 51.3708V44.9837H254.057V49.987C254.057 50.9569 254.326 51.6902 254.863 52.187C255.4 52.6838 256.16 52.9321 257.141 52.9321C257.795 52.9321 258.356 52.873 258.823 52.7547C259.314 52.6128 259.722 52.3881 260.05 52.0805V44.9837H264.43V62.6548H260.05Z" fill="black"/>
<path d="M283.9 56.7289C283.666 57.9118 283.211 58.9881 282.533 59.958C281.856 60.9279 280.956 61.6967 279.835 62.2645C278.714 62.8086 277.358 63.0806 275.77 63.0806C274.135 63.0806 272.686 62.7021 271.425 61.9451C270.163 61.1645 269.17 60.0881 268.446 58.7161C267.722 57.3204 267.36 55.6999 267.36 53.8547C267.36 52.0096 267.722 50.3891 268.446 48.9934C269.193 47.5977 270.21 46.5095 271.495 45.7289C272.78 44.9482 274.24 44.5579 275.875 44.5579C277.534 44.5579 278.982 44.9364 280.22 45.6934C281.482 46.4267 282.463 47.4794 283.164 48.8515C283.888 50.2235 284.25 51.8795 284.25 53.8193C284.25 53.9848 284.239 54.1859 284.215 54.4225C284.215 54.6354 284.204 54.8246 284.18 54.9902H271.74C271.927 56.2203 272.382 57.1548 273.107 57.7935C273.831 58.4085 274.754 58.7161 275.875 58.7161C276.973 58.7161 277.849 58.5386 278.503 58.1838C279.157 57.8053 279.625 57.3203 279.905 56.7289H283.9ZM275.875 48.887C274.847 48.887 273.971 49.1708 273.247 49.7386C272.546 50.2827 272.067 51.0988 271.81 52.187H279.905C279.741 51.1461 279.298 50.3418 278.573 49.7741C277.872 49.1827 276.973 48.887 275.875 48.887Z" fill="black"/>
<path d="M297.779 62.6548V55.9838H291.576V62.6548H287.161V44.9837H291.576V51.2644H297.779V44.9837H302.195V62.6548H297.779Z" fill="black"/>
<path d="M310.467 44.9837V55.3096L317.09 44.9837H321.26V62.6548H316.845V52.2579L310.327 62.6548H306.051V44.9837H310.467Z" fill="black"/>
<path d="M329.528 44.9837V55.3096L336.151 44.9837H340.322V62.6548H335.906V52.2579L329.388 62.6548H325.113V44.9837H329.528Z" fill="black"/>
<path d="M342.843 62.6548L347.959 55.8773C347.071 55.759 346.277 55.5107 345.576 55.1322C344.899 54.73 344.361 54.1623 343.964 53.4289C343.59 52.6956 343.403 51.7848 343.403 50.6967C343.403 49.4429 343.684 48.3902 344.245 47.5386C344.805 46.6869 345.564 46.0482 346.522 45.6224C347.48 45.1966 348.531 44.9837 349.676 44.9837H357.526V62.6548H353.11V55.9128H352.865L348.029 62.6548H342.843ZM350.342 53.0386H353.11V49.4192H350.377C349.513 49.4192 348.858 49.573 348.415 49.8805C347.994 50.1644 347.784 50.6139 347.784 51.2289C347.784 51.8203 347.994 52.2698 348.415 52.5773C348.858 52.8848 349.501 53.0386 350.342 53.0386Z" fill="black"/>
</g>
</g>
</svg>
