<svg width="202" height="93" viewBox="0 0 202 93" fill="none" xmlns="http://www.w3.org/2000/svg">
<g id="Group 360">
<rect id="Rectangle 1" x="68" y="10" width="134" height="25" fill="#FFC800"/>
<g id="&#208;&#157;&#208;&#176; &#209;&#130;&#208;&#178;&#208;&#190;&#208;&#181;&#208;&#185; &#209;&#129;&#209;&#130;&#208;&#190;&#209;&#128;&#208;&#190;&#208;&#189;&#208;&#181;">
<path d="M22.4342 35.0734V19.8577H7.46078V35.0734H1.91701V0H7.46078V13.8746H22.4342V0H27.9779V35.0734H22.4342Z" fill="black"/>
<path d="M52.9808 35.1765C51.6337 35.1765 50.5457 34.8327 49.7167 34.145C48.8877 33.4229 48.3869 32.3397 48.2142 30.8955C47.4543 32.3053 46.4699 33.3885 45.261 34.145C44.052 34.9015 42.5841 35.2797 40.857 35.2797C38.6119 35.2797 36.7985 34.6779 35.4169 33.4744C34.0698 32.2709 33.3962 30.5517 33.3962 28.3166C33.3962 26.838 33.6726 25.6173 34.2252 24.6545C34.8124 23.6917 35.6587 22.8837 36.764 22.2303C37.8693 21.5426 39.2163 20.9065 40.8052 20.3219L47.7997 17.743C47.6615 16.5395 47.1607 15.7142 46.2972 15.2672C45.4337 14.8202 44.3974 14.5967 43.1885 14.5967C41.8414 14.5967 40.7361 14.8374 39.8726 15.3188C39.0091 15.8002 38.4737 16.5567 38.2665 17.5883H33.7071C33.9489 15.7314 34.5188 14.1841 35.4169 12.9462C36.3149 11.7083 37.4548 10.7971 38.8364 10.2125C40.218 9.5936 41.7378 9.28413 43.3958 9.28413C46.2972 9.28413 48.6287 10.0578 50.3902 11.6052C52.1518 13.1181 53.0153 15.4735 52.9808 18.6714L52.8254 27.6461C52.8254 28.5745 52.9635 29.2278 53.2399 29.6061C53.5507 29.9499 54.0343 30.1218 54.6906 30.1218H55.4677V35.0734C55.0878 35.1078 54.6733 35.125 54.2243 35.125C53.7752 35.1593 53.3607 35.1765 52.9808 35.1765ZM38.5255 27.1819C38.5255 28.1447 38.8882 28.8668 39.6136 29.3482C40.3735 29.7952 41.3579 30.0187 42.5668 30.0187C43.7066 30.0187 44.7428 29.864 45.6754 29.5545C46.608 29.2106 47.2989 28.7808 47.7479 28.265L47.8515 21.3019L43.2403 23.0556C41.5478 23.7089 40.3389 24.3279 39.6136 24.9124C38.8882 25.4626 38.5255 26.2191 38.5255 27.1819Z" fill="black"/>
<path d="M70.0149 9.79991H90.6357V15.2672H82.9676V35.0734H77.6829V15.2672H70.0149V9.79991Z" fill="black"/>
<path d="M105.831 35.0734H95.0546V9.79991H105.365C108.025 9.79991 110.097 10.3845 111.582 11.5536C113.068 12.7227 113.81 14.356 113.81 16.4535C113.81 17.7258 113.499 18.8262 112.878 19.7546C112.29 20.6486 111.496 21.2847 110.494 21.663C111.807 22.0068 112.878 22.6773 113.707 23.6745C114.536 24.6373 114.95 25.9096 114.95 27.4913C114.95 29.9671 114.138 31.8583 112.515 33.165C110.926 34.4372 108.698 35.0734 105.831 35.0734ZM100.184 14.6999V20.4251H104.899C106.177 20.4251 107.144 20.2016 107.8 19.7546C108.456 19.2732 108.784 18.5339 108.784 17.5367C108.784 16.5395 108.491 15.8174 107.904 15.3704C107.317 14.9234 106.367 14.6999 105.054 14.6999H100.184ZM100.184 23.7261V30.1218H105.158C106.781 30.1218 107.973 29.8639 108.733 29.3482C109.493 28.8324 109.873 28.0243 109.873 26.924C109.873 25.7892 109.493 24.9812 108.733 24.4998C107.973 23.984 106.816 23.7261 105.261 23.7261H100.184Z" fill="black"/>
<path d="M130.835 9.28413C133.391 9.28413 135.601 9.86869 137.466 11.0378C139.366 12.1725 140.834 13.7371 141.87 15.7314C142.906 17.6914 143.425 19.9093 143.425 22.3851C143.425 24.8608 142.906 27.0959 141.87 29.0903C140.834 31.0846 139.366 32.6664 137.466 33.8355C135.601 35.0046 133.391 35.5892 130.835 35.5892C128.279 35.5892 126.051 35.0046 124.151 33.8355C122.286 32.6664 120.835 31.0846 119.799 29.0903C118.763 27.0959 118.244 24.8608 118.244 22.3851C118.244 19.9093 118.763 17.6914 119.799 15.7314C120.835 13.7371 122.286 12.1725 124.151 11.0378C126.051 9.86869 128.279 9.28413 130.835 9.28413ZM130.835 14.9578C128.624 14.9578 126.845 15.6455 125.498 17.0209C124.185 18.3619 123.529 20.15 123.529 22.3851C123.529 24.6545 124.185 26.477 125.498 27.8524C126.845 29.2278 128.624 29.9155 130.835 29.9155C133.045 29.9155 134.807 29.2278 136.119 27.8524C137.466 26.477 138.14 24.6545 138.14 22.3851C138.14 20.15 137.466 18.3619 136.119 17.0209C134.807 15.6455 133.045 14.9578 130.835 14.9578Z" fill="black"/>
<path d="M170.354 27.0271C170.008 28.5745 169.369 30.0015 168.437 31.3081C167.504 32.5804 166.243 33.612 164.655 34.4029C163.1 35.1937 161.166 35.5892 158.852 35.5892C156.503 35.5892 154.413 35.0218 152.583 33.8871C150.786 32.7523 149.37 31.1878 148.334 29.1934C147.332 27.1991 146.832 24.9468 146.832 22.4366C146.832 19.8921 147.35 17.6398 148.386 15.6799C149.422 13.6855 150.838 12.1209 152.634 10.9862C154.465 9.85149 156.572 9.28413 158.955 9.28413C161.339 9.28413 163.428 9.85149 165.224 10.9862C167.021 12.0866 168.419 13.6339 169.421 15.6283C170.423 17.6227 170.924 19.9609 170.924 22.643C170.924 22.7461 170.906 22.9352 170.872 23.2103C170.872 23.451 170.872 23.623 170.872 23.7261H152.064C152.272 25.8236 152.98 27.457 154.189 28.6261C155.432 29.7952 157.021 30.3797 158.955 30.3797C160.717 30.3797 162.133 30.0703 163.204 29.4513C164.309 28.8324 165.104 28.0243 165.587 27.0271H170.354ZM158.955 14.4936C157.125 14.4936 155.622 15.0093 154.448 16.0409C153.273 17.0381 152.514 18.4479 152.168 20.2703H165.639C165.397 18.5511 164.706 17.1584 163.567 16.0925C162.461 15.0265 160.924 14.4936 158.955 14.4936Z" fill="black"/>
<path d="M180.99 9.79991V26.5113L191.974 9.79991H197V35.0734H191.767V18.1556L180.731 35.0734H175.706V9.79991H180.99ZM183.322 1.59893C183.633 2.42419 184.065 3.04313 184.617 3.45576C185.17 3.86839 185.912 4.0747 186.845 4.0747C187.778 4.0747 188.52 3.86839 189.073 3.45576C189.626 3.04313 190.057 2.42419 190.368 1.59893H193.943C193.805 3.52453 193.149 5.10627 191.974 6.34415C190.834 7.54765 189.125 8.1494 186.845 8.1494C184.531 8.1494 182.804 7.54765 181.664 6.34415C180.524 5.10627 179.885 3.52453 179.747 1.59893H183.322Z" fill="black"/>
<path d="M12.2274 56.8435C15.3015 56.8435 17.823 57.6859 19.7918 59.3708C21.7952 61.0213 23.0559 63.2736 23.574 66.1276H18.8592C18.5138 65.0273 17.8057 64.1504 16.735 63.4971C15.6987 62.8438 14.2135 62.5171 12.2792 62.5171C10.1031 62.5171 8.39338 63.2048 7.14992 64.5802C5.90645 65.9557 5.28472 67.7437 5.28472 69.9444C5.28472 72.1451 5.90645 73.9503 7.14992 75.3602C8.39338 76.77 10.1031 77.4749 12.2792 77.4749C14.2135 77.4749 15.6987 77.1482 16.735 76.4949C17.8057 75.8072 18.5138 74.9475 18.8592 73.916H23.574C23.0559 76.7356 21.7952 78.9878 19.7918 80.6727C17.823 82.3232 15.3015 83.1485 12.2274 83.1485C9.74047 83.1485 7.58168 82.5639 5.75102 81.3948C3.92037 80.2257 2.5042 78.644 1.50252 76.6496C0.50084 74.6553 0 72.4202 0 69.9444C0 67.4686 0.50084 65.2508 1.50252 63.2908C2.5042 61.2964 3.92037 59.7319 5.75102 58.5971C7.58168 57.428 9.74047 56.8435 12.2274 56.8435Z" fill="black"/>
<path d="M26.3499 57.4108H46.9707V62.8782H39.3027V82.6843H34.018V62.8782H26.3499V57.4108Z" fill="black"/>
<path d="M62.023 56.8951C64.579 56.8951 66.7896 57.4796 68.6548 58.6487C70.5546 59.7834 72.0226 61.348 73.0588 63.3424C74.095 65.3023 74.6131 67.5202 74.6131 69.996C74.6131 72.4718 74.095 74.7068 73.0588 76.7012C72.0226 78.6956 70.5546 80.2773 68.6548 81.4464C66.7896 82.6155 64.579 83.2001 62.023 83.2001C59.467 83.2001 57.2392 82.6155 55.3394 81.4464C53.4742 80.2773 52.0235 78.6956 50.9873 76.7012C49.9511 74.7068 49.433 72.4718 49.433 69.996C49.433 67.5202 49.9511 65.3023 50.9873 63.3424C52.0235 61.348 53.4742 59.7834 55.3394 58.6487C57.2392 57.4796 59.467 56.8951 62.023 56.8951ZM62.023 62.5687C59.8124 62.5687 58.0336 63.2564 56.6865 64.6318C55.374 65.9729 54.7177 67.7609 54.7177 69.996C54.7177 72.2654 55.374 74.0879 56.6865 75.4633C58.0336 76.8387 59.8124 77.5265 62.023 77.5265C64.2336 77.5265 65.9952 76.8387 67.3078 75.4633C68.6548 74.0879 69.3284 72.2654 69.3284 69.996C69.3284 67.7609 68.6548 65.9729 67.3078 64.6318C65.9952 63.2564 64.2336 62.5687 62.023 62.5687Z" fill="black"/>
<path d="M84.4965 61.8466C85.1873 60.3336 86.2235 59.1473 87.6051 58.2877C88.9867 57.3936 90.6965 56.9466 92.7344 56.9466C95.0141 56.9466 97.0175 57.4796 98.7445 58.5456C100.472 59.5771 101.819 61.0557 102.786 62.9813C103.753 64.9069 104.236 67.1936 104.236 69.8413C104.236 72.4546 103.753 74.7756 102.786 76.8044C101.819 78.7987 100.472 80.3633 98.7445 81.498C97.052 82.5983 95.0659 83.1485 92.7862 83.1485C90.8865 83.1485 89.2631 82.8218 87.916 82.1685C86.6034 81.4808 85.5499 80.4492 84.7555 79.0738V93H79.4708V57.4108H84.4965V61.8466ZM91.6464 77.578C94.0642 77.578 95.8776 76.8731 97.0865 75.4633C98.33 74.0535 98.9517 72.1967 98.9517 69.8928C98.9517 67.5546 98.33 65.7494 97.0865 64.4771C95.8776 63.1704 94.047 62.5171 91.5946 62.5171C89.9021 62.5171 88.4686 62.7578 87.2943 63.2392C86.1544 63.7206 85.3082 64.4943 84.7555 65.5602V74.6381C85.3082 75.704 86.1544 76.4605 87.2943 76.9075C88.4686 77.3545 89.9193 77.578 91.6464 77.578Z" fill="black"/>
<path d="M120.361 56.8951C122.917 56.8951 125.128 57.4796 126.993 58.6487C128.893 59.7834 130.361 61.348 131.397 63.3424C132.433 65.3023 132.951 67.5202 132.951 69.996C132.951 72.4718 132.433 74.7068 131.397 76.7012C130.361 78.6956 128.893 80.2773 126.993 81.4464C125.128 82.6155 122.917 83.2001 120.361 83.2001C117.805 83.2001 115.577 82.6155 113.677 81.4464C111.812 80.2773 110.361 78.6956 109.325 76.7012C108.289 74.7068 107.771 72.4718 107.771 69.996C107.771 67.5202 108.289 65.3023 109.325 63.3424C110.361 61.348 111.812 59.7834 113.677 58.6487C115.577 57.4796 117.805 56.8951 120.361 56.8951ZM120.361 62.5687C118.15 62.5687 116.372 63.2564 115.024 64.6318C113.712 65.9729 113.056 67.7609 113.056 69.996C113.056 72.2654 113.712 74.0879 115.024 75.4633C116.372 76.8387 118.15 77.5265 120.361 77.5265C122.572 77.5265 124.333 76.8387 125.646 75.4633C126.993 74.0879 127.666 72.2654 127.666 69.996C127.666 67.7609 126.993 65.9729 125.646 64.6318C124.333 63.2564 122.572 62.5687 120.361 62.5687Z" fill="black"/>
<path d="M153.508 82.6843V72.3686H143.093V82.6843H137.809V57.4108H143.093V66.9529H153.508V57.4108H158.792V82.6843H153.508Z" fill="black"/>
<path d="M187.202 74.6381C186.857 76.1854 186.218 77.6124 185.285 78.9191C184.353 80.1913 183.092 81.2229 181.503 82.0138C179.949 82.8046 178.015 83.2001 175.7 83.2001C173.352 83.2001 171.262 82.6327 169.431 81.498C167.635 80.3633 166.219 78.7987 165.183 76.8044C164.181 74.81 163.68 72.5577 163.68 70.0476C163.68 67.503 164.198 65.2508 165.235 63.2908C166.271 61.2964 167.687 59.7319 169.483 58.5971C171.314 57.4624 173.421 56.8951 175.804 56.8951C178.187 56.8951 180.277 57.4624 182.073 58.5971C183.869 59.6975 185.268 61.2448 186.27 63.2392C187.272 65.2336 187.772 67.5718 187.772 70.2539C187.772 70.357 187.755 70.5462 187.721 70.8212C187.721 71.0619 187.721 71.2339 187.721 71.337H168.913C169.12 73.4346 169.829 75.0679 171.037 76.237C172.281 77.4061 173.87 77.9907 175.804 77.9907C177.566 77.9907 178.982 77.6812 180.053 77.0622C181.158 76.4433 181.952 75.6352 182.436 74.6381H187.202ZM175.804 62.1045C173.973 62.1045 172.471 62.6203 171.296 63.6518C170.122 64.649 169.362 66.0588 169.017 67.8813H182.488C182.246 66.162 181.555 64.7694 180.415 63.7034C179.31 62.6375 177.773 62.1045 175.804 62.1045Z" fill="black"/>
</g>
</g>
</svg>
