<svg width="226" height="31" viewBox="0 0 226 31" fill="none" xmlns="http://www.w3.org/2000/svg">
<g id="&#208;&#160;&#208;&#181;&#209;&#129;&#209;&#131;&#209;&#128;&#209;&#129; 2 3" clip-path="url(#clip0_117_1227)">
<g id="&#208;&#161;&#208;&#187;&#208;&#190;&#208;&#185; 2">
<g id="Layer 2">
<path id="Vector" d="M131.621 7.05456C134.793 7.05456 137.053 5.4127 137.482 1.8042H134.364C134.042 3.0792 133.288 3.7167 131.627 3.7167C129.966 3.7167 129.102 3.0792 128.832 1.8042H125.708C126.137 5.4127 128.452 7.05456 131.621 7.05456Z" fill="black"/>
<path id="Vector_2" d="M67.6127 21.7563V8.70251H63.689V27.7313H67.7739L75.6791 14.4581V27.7313H79.6028V8.70251H75.5179L67.6127 21.7563Z" fill="black"/>
<path id="Vector_3" d="M51.3367 8.86187C48.2282 8.86187 45.5759 10.2932 44.2041 12.9515C44.4079 8.63934 45.2656 6.0743 50.3147 5.41274L58.1652 4.34824L57.8428 0.09021L49.6699 1.20283C42.6255 2.16209 40.6362 7.5177 40.6362 15.9826C40.6362 23.371 44.0246 28.1012 50.3147 28.1012C56.4436 28.1012 59.7773 23.4222 59.7773 17.9493C59.7773 12.4764 56.0695 8.86187 51.3367 8.86187ZM50.3147 23.8973C46.7682 23.8973 44.6694 21.3473 44.6694 17.5193V15.5586C45.4238 14.0551 47.4069 12.9004 50.3147 12.9004C53.3807 12.9004 55.744 14.3378 55.744 17.9523C55.744 21.5668 53.8643 23.9033 50.3147 23.9033V23.8973Z" fill="black"/>
<path id="Vector_4" d="M156.124 8.70251V15.8263H148.49V8.70251H144.566V27.7313H148.49V19.7596H156.124V27.7313H160.051V8.70251H156.124Z" fill="black"/>
<path id="Vector_5" d="M127.642 21.7563V8.70251H123.719V27.7313H127.804L135.709 14.4581V27.7313H139.633V8.70251H135.548L127.642 21.7563Z" fill="black"/>
<path id="Vector_6" d="M86.6624 20.3429C86.2335 22.4689 85.6404 23.3741 84.4603 23.3741C83.9703 23.3927 83.4803 23.3389 83.0063 23.2147V27.6261C83.612 27.9038 84.2772 28.0308 84.9439 27.9959C86.9848 27.9959 88.4387 26.8292 89.1353 25.0219C89.5672 23.9033 89.8348 22.3637 90.0477 20.3971C90.3101 17.8534 90.436 15.2978 90.4249 12.741H95.6383V27.7313H99.565V8.70251H87.146C87.146 14.434 86.9909 18.2169 86.6624 20.3429Z" fill="black"/>
<path id="Vector_7" d="M118.089 22.5742L118.14 15.0264C118.195 10.2421 115.239 8.27551 110.938 8.27551C107.388 8.27551 104.161 10.191 103.677 14.6565H107.443C107.656 12.9004 109.055 12.317 110.938 12.317C112.82 12.317 114.159 12.9034 114.35 14.861L109.539 16.7825C106.26 18.1117 103.787 19.6002 103.787 22.7336C103.787 25.9782 105.612 28.0501 109.262 28.0501C111.786 28.0501 113.383 26.8773 114.661 24.5859C114.852 26.8803 116.388 27.8937 119.047 27.8937H120.145V24.2221H119.822C118.572 24.2221 118.089 23.756 118.089 22.5742ZM110.716 24.0567C108.891 24.0567 107.543 23.5786 107.543 21.9307C107.543 20.4963 108.672 19.8588 110.609 19.0619L114.366 17.5253L114.326 22.6824C113.678 23.4793 112.389 24.0567 110.716 24.0567Z" fill="black"/>
<path id="Vector_8" d="M173.577 13.3064H170.885V16.133H168.969V8.64539H170.885V11.3067H173.577V8.64539H175.503V16.133H173.586L173.577 13.3064Z" fill="black"/>
<path id="Vector_9" d="M181.227 14.855C181.051 15.2754 180.747 15.6313 180.357 15.8737C179.968 16.116 179.512 16.2329 179.052 16.2082C177.668 16.2082 176.816 15.4113 176.816 14.1032C176.816 12.735 177.638 12.1937 179.128 11.6976L181.06 11.0661C180.938 10.5248 180.466 10.3444 179.843 10.3444C179.098 10.3444 178.626 10.5699 178.52 11.0661H176.953C177.136 9.36709 178.292 8.46497 179.98 8.46497C181.774 8.46497 182.976 9.38213 182.945 11.3067L182.9 13.7424C182.9 14.2235 183.067 14.404 183.508 14.404H183.645V16.1481C183.386 16.1481 183.082 16.1781 182.824 16.1781C181.926 16.1781 181.333 15.7421 181.227 14.855ZM179.706 14.2837C180.299 14.2837 180.847 14.1183 181.06 13.8777L181.075 12.2238L179.721 12.6899C178.961 12.9606 178.657 13.1861 178.657 13.6221C178.657 14.0581 179.098 14.2837 179.706 14.2837Z" fill="black"/>
<path id="Vector_10" d="M193.987 8.64539V10.6601H191.857V16.133H189.941V10.6601H187.812V8.64539H193.987Z" fill="black"/>
<path id="Vector_11" d="M195.203 16.133V8.64539H198.564C200.191 8.64539 201.058 9.39716 201.058 10.6301C201.072 10.9414 200.992 11.2498 200.83 11.517C200.668 11.7843 200.43 11.9986 200.146 12.1336C200.511 12.2508 200.829 12.4802 201.053 12.7885C201.278 13.0968 201.397 13.4679 201.393 13.8476C201.393 15.3061 200.343 16.118 198.747 16.118L195.203 16.133ZM197.059 11.7427H198.275C198.944 11.7427 199.264 11.5322 199.264 11.0511C199.264 10.5699 198.96 10.3745 198.29 10.3745H197.074L197.059 11.7427ZM197.059 14.3889H198.442C199.188 14.3889 199.568 14.1483 199.568 13.6221C199.568 13.0959 199.203 12.8553 198.473 12.8553H197.059V14.3889Z" fill="black"/>
<path id="Vector_12" d="M209.94 12.3742C209.94 14.6295 208.48 16.3134 206.108 16.3134C203.735 16.3134 202.269 14.6295 202.269 12.3742C202.269 10.1189 203.744 8.46497 206.117 8.46497C208.489 8.46497 209.94 10.1339 209.94 12.3742ZM204.161 12.3742C204.161 13.5469 204.937 14.2386 206.092 14.2386C207.248 14.2386 208.024 13.5469 208.024 12.3742C208.024 11.2014 207.233 10.5399 206.092 10.5399C204.952 10.5399 204.176 11.2164 204.176 12.3742H204.161Z" fill="black"/>
<path id="Vector_13" d="M214.472 16.3134C212.343 16.3134 210.822 14.7498 210.822 12.4042C210.822 10.0587 212.389 8.46497 214.518 8.46497C216.647 8.46497 218.168 9.93844 218.168 12.3892C218.168 12.5245 218.153 12.7501 218.137 12.8854H212.723C212.875 13.9228 213.545 14.4641 214.518 14.4641C215.491 14.4641 216.039 14.1183 216.267 13.6221H218.001C217.696 15.1407 216.525 16.3134 214.472 16.3134ZM212.754 11.6976H216.261C216.205 11.2877 215.993 10.9143 215.668 10.6543C215.342 10.3942 214.929 10.2672 214.512 10.2993C214.096 10.2782 213.687 10.4091 213.363 10.667C213.039 10.9249 212.822 11.2917 212.754 11.6976Z" fill="black"/>
<path id="Vector_14" d="M221.316 13.0206L224.19 8.64531H225.994V16.1329H224.078V11.7276L221.249 16.1329H219.394V8.64531H221.31L221.316 13.0206ZM222.715 6.88316C222.934 6.90346 223.154 6.84462 223.333 6.7175C223.512 6.59038 223.638 6.40355 223.688 6.19153H224.875C224.814 7.43947 224.023 8.20627 222.715 8.20627C221.407 8.20627 220.586 7.43947 220.555 6.19153H221.736C221.798 6.39786 221.928 6.57778 222.106 6.70298C222.283 6.82818 222.497 6.89156 222.715 6.88316Z" fill="black"/>
<path id="Vector_15" d="M175.767 22.8298H174.079C173.866 22.2584 173.349 21.9577 172.345 21.9577C172.097 21.9398 171.848 21.9749 171.614 22.0608C171.381 22.1466 171.169 22.2811 170.993 22.4552C170.817 22.6292 170.681 22.8387 170.594 23.0694C170.507 23.3001 170.472 23.5465 170.49 23.792C170.49 24.9497 171.235 25.6564 172.345 25.6564C173.349 25.6564 173.866 25.3557 174.079 24.7994H175.767C175.509 26.6036 174.277 27.7313 172.269 27.7313C170.019 27.7313 168.574 26.0473 168.574 23.792C168.574 21.5367 170.019 19.8828 172.269 19.8828C174.286 19.8828 175.503 21.0496 175.767 22.8298Z" fill="black"/>
<path id="Vector_16" d="M182.748 20.0723V22.087H180.604V27.5599H178.687V22.087H176.543V20.0723H182.748Z" fill="black"/>
<path id="Vector_17" d="M191.097 23.801C191.097 26.0564 189.637 27.7403 187.264 27.7403C184.892 27.7403 183.411 26.0564 183.411 23.801C183.411 21.5457 184.886 19.8918 187.258 19.8918C189.631 19.8918 191.097 21.5608 191.097 23.801ZM185.333 23.801C185.333 24.9738 186.109 25.6654 187.264 25.6654C188.42 25.6654 189.196 24.9738 189.196 23.801C189.196 22.6283 188.405 21.9667 187.264 21.9667C186.124 21.9667 185.333 22.6433 185.333 23.801Z" fill="black"/>
<path id="Vector_18" d="M196.587 19.9069C198.458 19.9069 199.963 21.2751 199.963 23.771C199.963 26.2669 198.473 27.7253 196.618 27.7253C195.462 27.7253 194.762 27.3043 194.306 26.5676V30.567H192.39V20.0723H194.215V21.3954C194.415 20.9421 194.748 20.5583 195.171 20.2931C195.594 20.028 196.087 19.8935 196.587 19.9069ZM198.062 23.7861C198.062 22.5832 197.378 21.9517 196.146 21.9517C195.203 21.9517 194.58 22.1773 194.291 22.7185V24.9588C194.595 25.5001 195.203 25.6955 196.146 25.6955C197.378 25.6805 198.062 25.0039 198.062 23.7861Z" fill="black"/>
<path id="Vector_19" d="M208.556 23.801C208.556 26.0564 207.096 27.7403 204.724 27.7403C202.351 27.7403 200.876 26.0564 200.876 23.801C200.876 21.5457 202.351 19.8918 204.724 19.8918C207.096 19.8918 208.556 21.5608 208.556 23.801ZM202.792 23.801C202.792 24.9738 203.568 25.6654 204.724 25.6654C205.879 25.6654 206.655 24.9738 206.655 23.801C206.655 22.6283 205.864 21.9667 204.724 21.9667C203.583 21.9667 202.792 22.6433 202.792 23.801Z" fill="black"/>
<path id="Vector_20" d="M214.436 24.7332H211.744V27.5599H209.828V20.0723H211.744V22.7335H214.436V20.0723H216.352V27.5599H214.436V24.7332Z" fill="black"/>
<path id="Vector_21" d="M221.285 27.7403C219.156 27.7403 217.635 26.1766 217.635 23.8311C217.635 21.4856 219.202 19.8918 221.331 19.8918C223.46 19.8918 224.981 21.3653 224.981 23.801C224.981 23.9364 224.981 24.1619 224.95 24.2972H219.536C219.688 25.3347 220.358 25.8759 221.331 25.8759C222.304 25.8759 222.852 25.5301 223.08 25.034H224.814C224.509 26.5676 223.338 27.7403 221.285 27.7403ZM219.567 23.1245H223.08C223.024 22.7145 222.812 22.3412 222.487 22.0812C222.162 21.8211 221.748 21.6941 221.331 21.7262C220.914 21.7036 220.504 21.8338 220.178 22.0918C219.853 22.3498 219.635 22.7175 219.567 23.1245Z" fill="black"/>
<path id="Vector_22" d="M15.6856 30.997C24.3469 30.997 31.3683 24.0581 31.3683 15.4985C31.3683 6.93891 24.3469 0 15.6856 0C7.02431 0 0.00292969 6.93891 0.00292969 15.4985C0.00292969 24.0581 7.02431 30.997 15.6856 30.997Z" fill="#FFC800"/>
<path id="Vector_23" d="M22.4351 27.0457C17.1122 30.0859 11.3331 30.6302 7.64355 28.8079C10.0407 30.2205 12.7755 30.9755 15.5662 30.9952C18.3568 31.0148 21.1022 30.2984 23.5195 28.9196C25.9367 27.5409 27.9383 25.5498 29.318 23.1516C30.6976 20.7533 31.4054 18.0347 31.3684 15.276C31.1281 19.3356 27.761 24.0086 22.4351 27.0457Z" fill="black"/>
<path id="Vector_24" d="M17.6779 1.13671C18.7577 2.98607 16.1571 6.47127 11.8471 8.92505C7.53707 11.3788 3.18752 11.869 2.11382 10.0196C2.06472 9.92923 2.024 9.83463 1.99216 9.73696C1.71537 8.87393 2.04995 7.76432 2.85598 6.59156C2.98373 6.40712 3.11757 6.2267 3.25748 6.05028C5.78878 2.80403 9.51419 0.677184 13.6234 0.132345C13.8546 0.0992675 14.0796 0.0722038 14.2986 0.0571684C15.7282 -0.0480795 16.8688 0.222558 17.4832 0.902158C17.5544 0.979279 17.6195 1.06172 17.6779 1.14874V1.13671Z" fill="black"/>
<path id="Vector_25" d="M24.3331 3.13644C26.2189 6.36304 22.4169 12.0194 15.8378 15.7662C9.25874 19.513 2.41201 19.949 0.52619 16.7224C0.208221 16.1796 0.0276922 15.5689 -1.35768e-05 14.9422C-0.0850676 17.1555 0.314382 19.3609 1.17102 21.4075C1.30181 21.7082 1.44477 22.0329 1.59685 22.3397C1.59685 22.3397 1.59685 22.3637 1.61814 22.3787C2.20637 23.3534 3.06157 24.1437 4.08491 24.6581C7.77442 26.6067 14.0128 25.9391 19.8467 22.6103C25.6806 19.2815 29.3853 14.2867 29.5222 10.155C29.5788 9.02536 29.312 7.90287 28.7526 6.91634C28.5397 6.60059 28.3177 6.29387 28.0835 5.99617C26.7305 4.26758 25.0207 2.84372 23.0678 1.81934C23.588 2.1532 24.0214 2.60336 24.3331 3.13343V3.13644Z" fill="black"/>
<path id="Vector_26" d="M15.6886 30.997C24.3499 30.997 31.3713 24.0581 31.3713 15.4985C31.3713 6.93891 24.3499 0 15.6886 0C7.02724 0 0.00585938 6.93891 0.00585938 15.4985C0.00585938 24.0581 7.02724 30.997 15.6886 30.997Z" fill="url(#paint0_radial_117_1227)"/>
</g>
</g>
</g>
<defs>
<radialGradient id="paint0_radial_117_1227" cx="0" cy="0" r="1" gradientUnits="userSpaceOnUse" gradientTransform="translate(15.6886 15.4985) scale(15.6827 15.5045)">
<stop offset="0.5" stop-color="white" stop-opacity="0"/>
<stop offset="0.6" stop-color="white" stop-opacity="0.02"/>
<stop offset="0.71" stop-color="white" stop-opacity="0.07"/>
<stop offset="0.82" stop-color="white" stop-opacity="0.15"/>
<stop offset="0.93" stop-color="white" stop-opacity="0.26"/>
<stop offset="1" stop-color="white" stop-opacity="0.35"/>
</radialGradient>
<clipPath id="clip0_117_1227">
<rect width="226" height="31" fill="white"/>
</clipPath>
</defs>
</svg>
